<svg xmlns="http://www.w3.org/2000/svg" width="200" height="200" viewBox="0 0 200 200" version="1.1">
	<path d="M 102.124 18.299 C 98.657 23.909, 93.461 24.755, 90.138 20.250 L 88.110 17.500 85.111 20.750 C 80.828 25.393, 75.966 25.304, 71.435 20.500 C 67.848 16.697, 66.514 16.219, 65.663 18.435 C 64.468 21.549, 61.506 21.999, 56.971 19.756 C 54.043 18.307, 52.506 17.981, 52.249 18.754 C 52.039 19.384, 50.964 21.047, 49.861 22.450 C 47.351 25.641, 42.368 25.864, 38.663 22.950 C 36.512 21.257, 35.680 21.101, 33.901 22.053 C 31.881 23.134, 31.799 23.626, 32.597 29.853 C 33.066 33.509, 33.463 46.850, 33.480 59.500 C 33.505 79.006, 35.059 100.034, 36.611 101.883 C 36.788 102.094, 38.539 100.856, 40.501 99.133 C 45.415 94.819, 49.082 94.930, 52.568 99.500 C 54.036 101.425, 55.648 103, 56.149 103 C 56.651 103, 58.444 101.425, 60.134 99.500 C 64.029 95.065, 67.155 94.951, 70.951 99.108 L 73.789 102.215 77.627 99.608 C 83.655 95.511, 88.748 96.480, 90.519 102.061 C 91.476 105.075, 93.199 103.929, 94.458 99.441 C 95.363 96.216, 96.013 95.500, 98.032 95.500 C 99.958 95.500, 101.049 96.542, 103 100.247 C 105.848 105.655, 107.352 105.868, 107.831 100.932 C 108.202 97.113, 109.337 96.035, 113 96.022 C 114.765 96.015, 116.029 96.942, 117.299 99.172 C 118.992 102.146, 119.197 102.232, 120.799 100.631 C 122.296 99.135, 122.500 96.328, 122.500 77.215 C 122.500 65.272, 122.143 48.300, 121.708 39.500 C 120.534 15.794, 120.244 14.756, 116 19 C 113.053 21.947, 109.562 21.533, 106.717 17.898 L 104.289 14.796 102.124 18.299 M 64.139 24.033 C 61.352 26.355, 58.136 26.554, 55.441 24.572 C 53.713 23.300, 53.244 23.382, 51.169 25.322 C 48.018 28.268, 40.178 28.366, 36.974 25.500 L 34.737 23.500 35.619 30.500 C 36.103 34.350, 36.367 44.205, 36.205 52.400 C 35.934 66.075, 37.452 93.786, 38.531 94.864 C 38.782 95.116, 39.913 94.484, 41.044 93.461 C 42.245 92.373, 44.593 91.600, 46.693 91.600 C 49.596 91.600, 50.885 92.303, 53.394 95.253 L 56.500 98.906 59.766 95.953 C 63.635 92.454, 67.626 92.131, 71.299 95.021 L 73.868 97.041 76.388 94.521 C 79.984 90.925, 84.518 91.140, 88.603 95.100 C 91.706 98.107, 91.822 98.136, 92.477 96.073 C 92.848 94.904, 94.212 93.252, 95.509 92.402 C 98.228 90.621, 100.882 91.566, 103.449 95.230 C 104.726 97.054, 105 97.141, 105 95.723 C 105 93.414, 108.534 90, 110.923 90 C 111.981 90, 114.184 91.125, 115.818 92.500 C 117.452 93.875, 119.061 95, 119.394 95 C 120.407 95, 119.915 57.578, 118.670 39.828 C 117.531 23.595, 117.449 23.193, 115.559 24.578 C 112.697 26.675, 108.379 26.323, 106.029 23.800 L 103.979 21.601 101.240 24.725 C 97.146 29.393, 94.587 29.740, 90.965 26.119 L 87.944 23.098 84.333 25.549 C 82.346 26.897, 80.094 28, 79.328 28 C 77.042 28, 71.599 25.430, 70.128 23.655 C 68.361 21.525, 67.051 21.608, 64.139 24.033 M 101.250 35.031 C 98.419 36.169, 98.264 40.155, 100.862 45.016 C 104.822 52.423, 112.016 50.858, 111.985 42.595 C 111.967 37.935, 111.393 36.769, 108.316 35.150 C 105.772 33.811, 104.345 33.787, 101.250 35.031 M 59.743 37.750 C 58.302 39.359, 46 61.573, 46 62.565 C 46 62.804, 46.582 63, 47.292 63 C 48.522 63, 53.370 55.365, 57.884 46.318 C 59.032 44.018, 60.385 41.880, 60.891 41.567 C 61.397 41.255, 63.153 43.867, 64.794 47.373 C 70.899 60.419, 85 78.445, 85 73.204 C 85 72.766, 82.329 68.924, 79.065 64.666 L 73.129 56.925 76.214 51.963 C 77.911 49.233, 79.652 47, 80.083 47 C 81.327 47, 87.319 54.781, 93.013 63.791 C 97.560 70.986, 100.105 73.432, 100.168 70.666 C 100.177 70.235, 97.565 65.746, 94.363 60.691 C 88.816 51.935, 81.118 43, 79.122 43 C 78.610 43, 76.758 45.538, 75.008 48.641 L 71.824 54.281 69.919 51.391 C 68.872 49.801, 67.003 45.688, 65.766 42.250 C 63.405 35.685, 62.319 34.874, 59.743 37.750 M 102.327 38.591 C 101.495 40.757, 104.600 47, 106.509 47 C 107.356 47, 108.488 45.846, 109.025 44.435 C 110.328 41.006, 110.268 40.411, 108.429 38.571 C 106.400 36.543, 103.109 36.553, 102.327 38.591 M 88.500 76.524 C 82.617 77.544, 78.199 77.675, 71.804 77.022 C 66.846 76.515, 61.904 76.507, 60.304 77.003 C 58.762 77.482, 55.734 78.240, 53.576 78.687 C 51.418 79.134, 49.447 80.126, 49.196 80.891 C 48.838 81.981, 49.363 82.105, 51.620 81.465 C 53.204 81.016, 61.700 80.532, 70.500 80.391 C 92.081 80.043, 111.095 79.239, 111.686 78.647 C 111.953 78.380, 111.345 77.727, 110.336 77.196 C 106.989 75.434, 96.627 75.115, 88.500 76.524 M 157.256 109.029 C 152.061 111.117, 148.782 120.744, 151.485 125.971 C 152.399 127.739, 152.992 129.341, 152.802 129.531 C 152.023 130.310, 141.989 121.592, 139.456 117.936 C 136.730 114.004, 135 112.939, 135 115.196 C 135 117.657, 140.351 123.977, 146.324 128.572 C 149.721 131.185, 153.020 133.953, 153.655 134.722 C 154.290 135.492, 155.127 139.290, 155.516 143.162 L 156.223 150.203 150.735 158.351 C 145.288 166.437, 139 177.166, 139 178.372 C 139 178.717, 139.567 179, 140.259 179 C 141.641 179, 142.579 177.671, 147.119 169.281 C 148.794 166.184, 151.337 162.114, 152.769 160.236 L 155.374 156.821 156.597 160.965 C 158.912 168.804, 163.295 178, 164.717 178 C 166.286 178, 165.823 175.614, 163.289 170.636 C 159.773 163.729, 158.794 159.118, 158.515 148.148 L 158.226 136.796 160.156 139.648 C 162.906 143.713, 165 148.863, 165 151.563 C 165 153.859, 166.618 155.715, 167.687 154.646 C 167.992 154.342, 167.939 152.082, 167.571 149.625 C 167.002 145.828, 163.006 138.557, 157.576 131.436 C 156.948 130.613, 157.830 128.848, 160.330 125.928 C 166.315 118.935, 167.079 111.718, 162.114 109.061 C 159.847 107.848, 160.188 107.850, 157.256 109.029 M 155.203 114.256 C 152.416 117.614, 152.605 126, 155.468 126 C 156.971 126, 161.235 120.824, 162.369 117.623 C 163.685 113.911, 157.789 111.140, 155.203 114.256 M 104 119.536 C 104 122.799, 103.634 123.229, 99.250 125.123 C 91.197 128.602, 77.757 132.785, 72.386 133.485 C 62.999 134.707, 54.535 130.609, 51.514 123.380 C 50.738 121.521, 49.629 120, 49.051 120 C 47.737 120, 47.720 119.710, 49.447 126.669 C 51.044 133.107, 51.546 141.497, 51.217 156.250 L 51 166 47.013 166 C 43.436 166, 42.883 166.344, 41.625 169.354 C 40.855 171.199, 38.824 174.641, 37.112 177.004 C 35.400 179.367, 34 181.850, 34 182.522 C 34 184.678, 41.395 185.020, 54.067 183.452 C 60.856 182.611, 66.574 181.759, 66.775 181.559 C 68.258 180.075, 57.964 166, 55.396 166 C 54.256 166, 54 162.884, 54 148.998 L 54 131.996 57.735 133.998 C 65.202 138, 79.698 136.168, 96.908 129.048 C 100.983 127.362, 104.475 126.142, 104.669 126.336 C 104.863 126.530, 105.451 132.271, 105.976 139.094 C 106.501 145.917, 107.605 153.733, 108.431 156.462 C 110.044 161.793, 109.529 162.940, 105.500 162.998 C 101.536 163.056, 98.876 164.234, 99.433 165.686 C 99.733 166.468, 98.859 169.319, 97.489 172.021 C 93.794 179.314, 93.961 179.623, 101.982 180.295 C 111.790 181.118, 131.635 178.938, 130.794 177.131 C 130.632 176.784, 128.925 173.263, 127 169.306 L 123.500 162.113 118.344 162.056 L 113.188 162 111.539 157.250 C 110.630 154.631, 109.275 145.099, 108.519 136 C 107.765 126.925, 106.842 118.713, 106.467 117.750 C 105.329 114.826, 104 115.788, 104 119.536 M 105.436 165.681 C 104.122 165.942, 102.407 168.058, 100.716 171.506 L 98.061 176.921 101.556 177.577 C 104.930 178.209, 120.199 177.385, 124.693 176.328 L 126.886 175.812 124.235 170.406 L 121.583 165 114.542 165.136 C 110.669 165.211, 106.571 165.456, 105.436 165.681 M 41.541 175.065 C 39.482 178.401, 38.061 181.394, 38.383 181.717 C 39.121 182.454, 63.001 179.916, 62.996 179.100 C 62.989 177.908, 58.789 171.471, 57.222 170.250 C 56.340 169.563, 53.293 169, 50.451 169 L 45.284 169 41.541 175.065" stroke="none" fill="black" fill-rule="evenodd"></path>
</svg>